<svg xmlns="http://www.w3.org/2000/svg" width="24" height="24" viewBox="0 0 24 24" fill="none">
  <path d="M12 3C16.9698 3 21 6.5802 21 11.0001C20.9993 12.326 20.4722 13.5973 19.5346 14.5348C18.5969 15.4723 17.3255 15.9991 15.9996 15.9996H14.2302C13.4004 15.9996 12.7299 16.6701 12.7299 17.4999C12.7299 17.8797 12.8802 18.2298 13.1097 18.4899C13.35 18.7599 13.5003 19.11 13.5003 19.4997C13.5003 20.3304 12.81 21 12 21C7.0302 21 3 16.9698 3 12C3 7.0302 7.0302 3 12 3ZM10.9299 17.4999C10.9295 17.0664 11.0147 16.6371 11.1804 16.2365C11.3461 15.8359 11.5892 15.472 11.8957 15.1654C12.2023 14.8589 12.5662 14.6158 12.9668 14.4501C13.3674 14.2844 13.7967 14.1992 14.2302 14.1996H15.9996C16.8479 14.1991 17.6614 13.862 18.2615 13.2623C18.8615 12.6626 19.199 11.8493 19.2 11.001C19.2 7.6251 16.0212 4.8 12 4.8C10.142 4.79831 8.35531 5.51493 7.01344 6.80003C5.67157 8.08513 4.87844 9.83922 4.79987 11.6955C4.72131 13.5519 5.36339 15.3667 6.59187 16.7606C7.82035 18.1545 9.54012 19.0195 11.3916 19.1748C11.0903 18.6683 10.9308 18.0901 10.9299 17.5008V17.4999ZM7.95 12C7.59196 12 7.24858 11.8578 6.99541 11.6046C6.74223 11.3514 6.6 11.008 6.6 10.65C6.6 10.292 6.74223 9.94858 6.99541 9.69541C7.24858 9.44223 7.59196 9.3 7.95 9.3C8.30804 9.3 8.65142 9.44223 8.90459 9.69541C9.15777 9.94858 9.3 10.292 9.3 10.65C9.3 11.008 9.15777 11.3514 8.90459 11.6046C8.65142 11.8578 8.30804 12 7.95 12ZM16.05 12C15.692 12 15.3486 11.8578 15.0954 11.6046C14.8422 11.3514 14.7 11.008 14.7 10.65C14.7 10.292 14.8422 9.94858 15.0954 9.69541C15.3486 9.44223 15.692 9.3 16.05 9.3C16.408 9.3 16.7514 9.44223 17.0046 9.69541C17.2578 9.94858 17.4 10.292 17.4 10.65C17.4 11.008 17.2578 11.3514 17.0046 11.6046C16.7514 11.8578 16.408 12 16.05 12ZM12 9.3C11.642 9.3 11.2986 9.15777 11.0454 8.90459C10.7922 8.65142 10.65 8.30804 10.65 7.95C10.65 7.59196 10.7922 7.24858 11.0454 6.99541C11.2986 6.74223 11.642 6.6 12 6.6C12.358 6.6 12.7014 6.74223 12.9546 6.99541C13.2078 7.24858 13.35 7.59196 13.35 7.95C13.35 8.30804 13.2078 8.65142 12.9546 8.90459C12.7014 9.15777 12.358 9.3 12 9.3Z" fill="#525866"/>
</svg>