<svg xmlns="http://www.w3.org/2000/svg" width="20" height="20" viewBox="0 0 20 20" fill="none">
  <path d="M10 4C14.5562 4 18.25 6.0145 18.25 8.5V11.5C18.25 13.9855 14.5562 16 10 16C5.52475 16 1.882 14.0568 1.75375 11.6328L1.75 11.5V8.5C1.75 6.0145 5.44375 4 10 4ZM10 13C7.21 13 4.7425 12.2447 3.25 11.0875V11.5C3.25 12.9115 6.16225 14.5 10 14.5C13.7575 14.5 16.6285 12.9775 16.7463 11.5885L16.75 11.5L16.7507 11.0875C15.2582 12.244 12.7907 13 10 13ZM10 5.5C6.16225 5.5 3.25 7.0885 3.25 8.5C3.25 9.9115 6.16225 11.5 10 11.5C13.8378 11.5 16.75 9.9115 16.75 8.5C16.75 7.0885 13.8378 5.5 10 5.5Z" fill="#0A0D14"/>
</svg>