<svg xmlns="http://www.w3.org/2000/svg" width="20" height="20" viewBox="0 0 20 20" fill="none">
  <path d="M4.00003 13H16V4.75H4.00003V13ZM10.75 14.5V16H13.75V17.5H6.25003V16H9.25003V14.5H3.24403C3.14554 14.4994 3.04814 14.4794 2.95741 14.4411C2.86667 14.4028 2.78439 14.347 2.71527 14.2768C2.64616 14.2066 2.59157 14.1235 2.55463 14.0322C2.5177 13.9409 2.49914 13.8432 2.50003 13.7448V4.00525C2.50003 3.58825 2.84128 3.25 3.24403 3.25H16.756C17.167 3.25 17.5 3.58675 17.5 4.00525V13.7448C17.5 14.1617 17.1588 14.5 16.756 14.5H10.75Z" fill="#525866"/>
</svg>