<svg xmlns="http://www.w3.org/2000/svg" width="28" height="28" viewBox="0 0 28 28" fill="none">
  <path d="M14 24.5C8.20085 24.5 3.5 19.7991 3.5 14C3.5 8.20085 8.20085 3.5 14 3.5C19.7991 3.5 24.5 8.20085 24.5 14C24.5 19.7991 19.7991 24.5 14 24.5ZM14 22.4C16.2278 22.4 18.3644 21.515 19.9397 19.9397C21.515 18.3644 22.4 16.2278 22.4 14C22.4 11.7722 21.515 9.63561 19.9397 8.0603C18.3644 6.485 16.2278 5.6 14 5.6C11.7722 5.6 9.63561 6.485 8.0603 8.0603C6.485 9.63561 5.6 11.7722 5.6 14C5.6 16.2278 6.485 18.3644 8.0603 19.9397C9.63561 21.515 11.7722 22.4 14 22.4V22.4ZM12.95 17.15H15.05V19.25H12.95V17.15ZM12.95 8.75H15.05V15.05H12.95V8.75Z" fill="#525866"/>
</svg>