<svg xmlns="http://www.w3.org/2000/svg" width="24" height="24" viewBox="0 0 24 24" fill="none">
  <path d="M20.1 3.8999C20.3387 3.8999 20.5676 3.99472 20.7364 4.16351C20.9052 4.33229 21 4.56121 21 4.7999V19.1999C21 19.4386 20.9052 19.6675 20.7364 19.8363C20.5676 20.0051 20.3387 20.0999 20.1 20.0999H3.9C3.66131 20.0999 3.43239 20.0051 3.2636 19.8363C3.09482 19.6675 3 19.4386 3 19.1999V4.7999C3 4.56121 3.09482 4.33229 3.2636 4.16351C3.43239 3.99472 3.66131 3.8999 3.9 3.8999H20.1ZM4.8 15.5999V18.2999H19.2V15.5999H4.8ZM4.8 13.7999H19.2V5.6999H4.8V13.7999Z" fill="#525866"/>
</svg>