<svg xmlns="http://www.w3.org/2000/svg" width="20" height="20" viewBox="0 0 20 20" fill="none">
  <path d="M14.2428 12.1208L13.1823 11.0603L14.2428 9.99976C14.5214 9.72118 14.7424 9.39045 14.8932 9.02646C15.0439 8.66248 15.1215 8.27236 15.1215 7.87838C15.1215 7.48441 15.0439 7.09429 14.8932 6.7303C14.7424 6.36632 14.5214 6.03559 14.2428 5.75701C13.9642 5.47843 13.6335 5.25744 13.2695 5.10667C12.9055 4.95591 12.5154 4.87831 12.1214 4.87831C11.7275 4.87831 11.3374 4.95591 10.9734 5.10667C10.6094 5.25744 10.2787 5.47843 10.0001 5.75701L8.93957 6.81751L7.87907 5.75701L8.93957 4.69651C9.7858 3.86395 10.9267 3.3995 12.1139 3.40433C13.301 3.40917 14.4381 3.88289 15.2775 4.72232C16.1169 5.56174 16.5907 6.69886 16.5955 7.88597C16.6003 9.07309 16.1359 10.214 15.3033 11.0603L14.2428 12.1208V12.1208ZM12.1211 14.2425L11.0606 15.303C10.644 15.7265 10.1476 16.0632 9.60022 16.2939C9.0528 16.5246 8.46513 16.6446 7.87111 16.647C7.27708 16.6494 6.68845 16.5342 6.13918 16.308C5.5899 16.0818 5.09085 15.7491 4.6708 15.329C4.25076 14.909 3.91804 14.4099 3.69183 13.8607C3.46562 13.3114 3.3504 12.7228 3.35282 12.1287C3.35524 11.5347 3.47525 10.947 3.70592 10.3996C3.93659 9.8522 4.27337 9.35587 4.69682 8.93926L5.75732 7.87876L6.81782 8.93926L5.75732 9.99976C5.47874 10.2783 5.25775 10.6091 5.10699 10.9731C4.95622 11.337 4.87862 11.7272 4.87862 12.1211C4.87862 12.5151 4.95622 12.9052 5.10699 13.2692C5.25775 13.6332 5.47874 13.9639 5.75732 14.2425C6.0359 14.5211 6.36663 14.7421 6.73062 14.8928C7.0946 15.0436 7.48472 15.1212 7.8787 15.1212C8.27267 15.1212 8.66279 15.0436 9.02678 14.8928C9.39076 14.7421 9.72149 14.5211 10.0001 14.2425L11.0606 13.182L12.1211 14.2425ZM12.1211 6.81751L13.1823 7.87876L7.87907 13.1813L6.81782 12.1208L12.1211 6.81826V6.81751Z" fill="#0A0D14"/>
</svg>