<svg xmlns="http://www.w3.org/2000/svg" width="40" height="32" viewBox="0 0 40 32" fill="none">
  <path d="M30.897 3.97959C30.897 2.08403 29.2045 0.636977 27.3318 0.931624L10.0049 3.65875C8.50385 3.89447 7.39892 5.18764 7.39892 6.70671V7.41714C7.39892 8.33218 6.99296 9.20139 6.28908 9.78741L1.10984 14.1056C0.405958 14.6917 0 15.5609 0 16.4759V24.8242C0 26.3433 1.10493 27.6365 2.60599 27.8722L22.9186 31.0691C23.3017 31.1297 23.6945 31.1166 24.0727 31.0315L37.5888 28.0015C38.9982 27.6856 40 26.435 40 24.9896V17.0767C40 16.3515 39.7446 15.6493 39.2781 15.0927L31.6173 5.96027C31.1508 5.40535 30.8954 4.70311 30.8954 3.97631L30.897 3.97959Z" fill="#018558"/>
</svg>