<svg xmlns="http://www.w3.org/2000/svg" width="24" height="24" viewBox="0 0 24 24" fill="none">
  <path d="M12.954 8.49906L14.2275 9.77256C14.8126 10.3576 15.2767 11.0521 15.5933 11.8165C15.91 12.5809 16.0729 13.4002 16.0729 14.2276C16.0729 15.0549 15.91 15.8742 15.5933 16.6386C15.2767 17.403 14.8126 18.0975 14.2275 18.6826L13.9089 19.0003C12.7273 20.1818 11.1248 20.8456 9.45389 20.8456C7.78294 20.8456 6.18043 20.1818 4.99889 19.0003C3.81735 17.8187 3.15356 16.2162 3.15356 14.5453C3.15356 12.8743 3.81735 11.2718 4.99889 10.0903L6.27239 11.3638C5.85152 11.781 5.5172 12.2772 5.28862 12.8239C5.06004 13.3707 4.94171 13.9572 4.94041 14.5498C4.93911 15.1424 5.05488 15.7294 5.28106 16.2772C5.50724 16.8249 5.83938 17.3226 6.25842 17.7416C6.67746 18.1607 7.17513 18.4928 7.72288 18.719C8.27062 18.9452 8.85765 19.0609 9.45025 19.0596C10.0429 19.0583 10.6294 18.94 11.1761 18.7114C11.7229 18.4828 12.2191 18.1485 12.6363 17.7277L12.9549 17.4091C13.7985 16.5652 14.2724 15.4208 14.2724 14.2276C14.2724 13.0343 13.7985 11.8899 12.9549 11.0461L11.6814 9.77256L12.9549 8.49996L12.954 8.49906ZM19.0002 13.909L17.7276 12.6364C18.1485 12.2192 18.4828 11.7229 18.7113 11.1762C18.9399 10.6294 19.0583 10.0429 19.0596 9.45033C19.0609 8.85773 18.9451 8.2707 18.7189 7.72295C18.4927 7.17521 18.1606 6.67753 17.7416 6.2585C17.3225 5.83946 16.8248 5.50732 16.2771 5.28114C15.7293 5.05496 15.1423 4.93919 14.5497 4.94049C13.9571 4.94179 13.3706 5.06012 12.8238 5.2887C12.2771 5.51728 11.7809 5.8516 11.3637 6.27246L11.0451 6.59106C10.2015 7.43494 9.72755 8.57932 9.72755 9.77256C9.72755 10.9658 10.2015 12.1102 11.0451 12.9541L12.3186 14.2276L11.0451 15.5002L9.77249 14.2276C9.18741 13.6425 8.7233 12.948 8.40665 12.1836C8.09001 11.4192 7.92703 10.5999 7.92703 9.77256C7.92703 8.94518 8.09001 8.1259 8.40665 7.36151C8.7233 6.59712 9.18741 5.90258 9.77249 5.31756L10.0911 4.99986C11.2726 3.81832 12.8751 3.15454 14.5461 3.15454C16.217 3.15454 17.8195 3.81832 19.0011 4.99986C20.1826 6.1814 20.8464 7.78391 20.8464 9.45486C20.8464 11.1258 20.1826 12.7283 19.0011 13.9099L19.0002 13.909Z" fill="#525866"/>
</svg>