<svg xmlns="http://www.w3.org/2000/svg" width="20" height="20" viewBox="0 0 20 20" fill="none">
  <path d="M6.25 4V16H13.75V4H6.25ZM5.5 2.5H14.5C14.6989 2.5 14.8897 2.57902 15.0303 2.71967C15.171 2.86032 15.25 3.05109 15.25 3.25V16.75C15.25 16.9489 15.171 17.1397 15.0303 17.2803C14.8897 17.421 14.6989 17.5 14.5 17.5H5.5C5.30109 17.5 5.11032 17.421 4.96967 17.2803C4.82902 17.1397 4.75 16.9489 4.75 16.75V3.25C4.75 3.05109 4.82902 2.86032 4.96967 2.71967C5.11032 2.57902 5.30109 2.5 5.5 2.5ZM10 13.75C10.1989 13.75 10.3897 13.829 10.5303 13.9697C10.671 14.1103 10.75 14.3011 10.75 14.5C10.75 14.6989 10.671 14.8897 10.5303 15.0303C10.3897 15.171 10.1989 15.25 10 15.25C9.80109 15.25 9.61032 15.171 9.46967 15.0303C9.32902 14.8897 9.25 14.6989 9.25 14.5C9.25 14.3011 9.32902 14.1103 9.46967 13.9697C9.61032 13.829 9.80109 13.75 10 13.75Z" fill="#525866"/>
</svg>