<svg width="40" height="40" viewBox="0 0 40 40" fill="none" xmlns="http://www.w3.org/2000/svg">
<g clip-path="url(#clip0_4011_34628)">
<g filter="url(#filter0_di_4011_34628)">
<path d="M30 40H10C6.68629 40 4 37.3137 4 34V6C4 2.68629 6.68629 0 10 0H20.5147C22.106 0 23.6321 0.632142 24.7574 1.75736L34.2426 11.2426C35.3679 12.3679 36 13.894 36 15.4853V34C36 37.3137 33.3137 40 30 40Z" fill="white"/>
<path d="M30 39.25H10C7.10051 39.25 4.75 36.8995 4.75 34V6C4.75 3.10051 7.10051 0.75 10 0.75H20.5147C21.9071 0.75 23.2425 1.30312 24.227 2.28769L33.7123 11.773C34.6969 12.7575 35.25 14.0929 35.25 15.4853V34C35.25 36.8995 32.8995 39.25 30 39.25Z" stroke="#CDD0D5" stroke-width="1.5"/>
</g>
<path d="M23 1V9C23 11.2091 24.7909 13 27 13H35" stroke="#CDD0D5" stroke-width="1.5"/>
<g filter="url(#filter1_i_4011_34628)">
<mask id="path-4-inside-1_4011_34628" fill="white">
<path d="M0 22C0 19.7909 1.79086 18 4 18H26C28.2091 18 30 19.7909 30 22V30C30 32.2091 28.2091 34 26 34H4C1.79086 34 0 32.2091 0 30V22Z"/>
</mask>
<path d="M0 22C0 19.7909 1.79086 18 4 18H26C28.2091 18 30 19.7909 30 22V30C30 32.2091 28.2091 34 26 34H4C1.79086 34 0 32.2091 0 30V22Z" fill="#F2AE40"/>
<path d="M-1 22C-1 19.2386 1.23858 17 4 17H26C28.7614 17 31 19.2386 31 22H29C29 20.3431 27.6569 19 26 19H4C2.34315 19 1 20.3431 1 22H-1ZM30 34H0H30ZM4 34C1.23858 34 -1 31.7614 -1 29V22C-1 19.2386 1.23858 17 4 17V19C2.34315 19 1 20.3431 1 22V30C1 32.2091 2.34315 34 4 34ZM26 17C28.7614 17 31 19.2386 31 22V29C31 31.7614 28.7614 34 26 34C27.6569 34 29 32.2091 29 30V22C29 20.3431 27.6569 19 26 19V17Z" fill="black" fill-opacity="0.08" mask="url(#path-4-inside-1_4011_34628)"/>
<path d="M3.78906 30V22H6.78906C7.40365 22 7.91927 22.1146 8.33594 22.3437C8.75521 22.5729 9.07161 22.888 9.28516 23.2891C9.5013 23.6875 9.60938 24.1406 9.60938 24.6484C9.60938 25.1615 9.5013 25.6172 9.28516 26.0156C9.06901 26.4141 8.75 26.7279 8.32812 26.957C7.90625 27.1836 7.38672 27.2969 6.76953 27.2969H4.78125V26.1055H6.57422C6.93359 26.1055 7.22786 26.043 7.45703 25.918C7.6862 25.793 7.85547 25.6211 7.96484 25.4023C8.07682 25.1836 8.13281 24.9323 8.13281 24.6484C8.13281 24.3646 8.07682 24.1146 7.96484 23.8984C7.85547 23.6823 7.6849 23.5143 7.45313 23.3945C7.22396 23.2721 6.92839 23.2109 6.56641 23.2109H5.23828V30H3.78906ZM17.6624 22V30H16.3733L12.6038 24.5508H12.5374V30H11.0882V22H12.385L16.1507 27.4531H16.221V22H17.6624ZM24.8209 24.5547C24.7558 24.3437 24.6659 24.1549 24.5513 23.9883C24.4393 23.819 24.3039 23.6745 24.1451 23.5547C23.9888 23.4349 23.8091 23.3451 23.606 23.2852C23.4029 23.2227 23.1815 23.1914 22.942 23.1914C22.5123 23.1914 22.1295 23.2995 21.7935 23.5156C21.4576 23.7318 21.1933 24.0495 21.0005 24.4687C20.8104 24.8854 20.7154 25.3932 20.7154 25.9922C20.7154 26.5964 20.8104 27.1081 21.0005 27.5273C21.1907 27.9466 21.455 28.2656 21.7935 28.4844C22.1321 28.7005 22.5253 28.8086 22.9732 28.8086C23.3795 28.8086 23.731 28.7305 24.0279 28.5742C24.3274 28.418 24.5578 28.1966 24.7193 27.9102C24.8808 27.6211 24.9615 27.2826 24.9615 26.8945L25.2896 26.9453H23.1177V25.8125H26.3638V26.7734C26.3638 27.4583 26.218 28.0508 25.9263 28.5508C25.6347 29.0508 25.2336 29.4362 24.7232 29.707C24.2128 29.9753 23.6268 30.1094 22.9654 30.1094C22.2284 30.1094 21.5813 29.944 21.024 29.6133C20.4693 29.2799 20.0357 28.8073 19.7232 28.1953C19.4133 27.5807 19.2584 26.8516 19.2584 26.0078C19.2584 25.362 19.3495 24.7852 19.5318 24.2773C19.7167 23.7695 19.9745 23.3385 20.3052 22.9844C20.636 22.6276 21.024 22.3568 21.4693 22.1719C21.9146 21.9844 22.399 21.8906 22.9224 21.8906C23.3651 21.8906 23.7779 21.9557 24.1607 22.0859C24.5435 22.2135 24.8834 22.3958 25.1802 22.6328C25.4797 22.8698 25.7258 23.151 25.9185 23.4766C26.1112 23.8021 26.2375 24.1615 26.2974 24.5547H24.8209Z" fill="white"/>
</g>
</g>
<defs>
<filter id="filter0_di_4011_34628" x="2" y="-4" width="36" height="47" filterUnits="userSpaceOnUse" color-interpolation-filters="sRGB">
<feFlood flood-opacity="0" result="BackgroundImageFix"/>
<feColorMatrix in="SourceAlpha" type="matrix" values="0 0 0 0 0 0 0 0 0 0 0 0 0 0 0 0 0 0 127 0" result="hardAlpha"/>
<feOffset dy="1"/>
<feGaussianBlur stdDeviation="1"/>
<feComposite in2="hardAlpha" operator="out"/>
<feColorMatrix type="matrix" values="0 0 0 0 0.894118 0 0 0 0 0.898039 0 0 0 0 0.905882 0 0 0 0.24 0"/>
<feBlend mode="normal" in2="BackgroundImageFix" result="effect1_dropShadow_4011_34628"/>
<feBlend mode="normal" in="SourceGraphic" in2="effect1_dropShadow_4011_34628" result="shape"/>
<feColorMatrix in="SourceAlpha" type="matrix" values="0 0 0 0 0 0 0 0 0 0 0 0 0 0 0 0 0 0 127 0" result="hardAlpha"/>
<feOffset dy="-4"/>
<feGaussianBlur stdDeviation="2"/>
<feComposite in2="hardAlpha" operator="arithmetic" k2="-1" k3="1"/>
<feColorMatrix type="matrix" values="0 0 0 0 0.813571 0 0 0 0 0.82 0 0 0 0 0.826429 0 0 0 0.32 0"/>
<feBlend mode="normal" in2="shape" result="effect2_innerShadow_4011_34628"/>
</filter>
<filter id="filter1_i_4011_34628" x="0" y="18" width="30" height="20" filterUnits="userSpaceOnUse" color-interpolation-filters="sRGB">
<feFlood flood-opacity="0" result="BackgroundImageFix"/>
<feBlend mode="normal" in="SourceGraphic" in2="BackgroundImageFix" result="shape"/>
<feColorMatrix in="SourceAlpha" type="matrix" values="0 0 0 0 0 0 0 0 0 0 0 0 0 0 0 0 0 0 127 0" result="hardAlpha"/>
<feOffset dy="4"/>
<feGaussianBlur stdDeviation="2"/>
<feComposite in2="hardAlpha" operator="arithmetic" k2="-1" k3="1"/>
<feColorMatrix type="matrix" values="0 0 0 0 1 0 0 0 0 1 0 0 0 0 1 0 0 0 0.08 0"/>
<feBlend mode="normal" in2="shape" result="effect1_innerShadow_4011_34628"/>
</filter>
<clipPath id="clip0_4011_34628">
<rect width="40" height="40" fill="white"/>
</clipPath>
</defs>
</svg>
