<svg xmlns="http://www.w3.org/2000/svg" width="20" height="20" viewBox="0 0 20 20" fill="none">
  <path d="M10 17.5C5.85775 17.5 2.5 14.1423 2.5 10C2.5 5.85775 5.85775 2.5 10 2.5C14.1422 2.5 17.5 5.85775 17.5 10C17.5 14.1423 14.1422 17.5 10 17.5ZM10 16C11.5913 16 13.1174 15.3679 14.2426 14.2426C15.3679 13.1174 16 11.5913 16 10C16 8.4087 15.3679 6.88258 14.2426 5.75736C13.1174 4.63214 11.5913 4 10 4C8.4087 4 6.88258 4.63214 5.75736 5.75736C4.63214 6.88258 4 8.4087 4 10C4 11.5913 4.63214 13.1174 5.75736 14.2426C6.88258 15.3679 8.4087 16 10 16V16ZM9.25 12.25H10.75V13.75H9.25V12.25ZM10.75 11.0163V11.5H9.25V10.375C9.25 10.1761 9.32902 9.98533 9.46967 9.84467C9.61032 9.70402 9.80109 9.625 10 9.625C10.2131 9.62499 10.4217 9.56448 10.6017 9.4505C10.7818 9.33653 10.9257 9.17378 11.0168 8.98119C11.108 8.78861 11.1425 8.5741 11.1165 8.36264C11.0905 8.15117 11.005 7.95144 10.8699 7.78669C10.7348 7.62193 10.5557 7.49893 10.3534 7.43198C10.1511 7.36504 9.93403 7.3569 9.72732 7.40853C9.52061 7.46016 9.33281 7.56943 9.18578 7.72362C9.03874 7.8778 8.93851 8.07058 8.89675 8.2795L7.42525 7.98475C7.51647 7.52882 7.72713 7.10528 8.03569 6.75744C8.34425 6.40961 8.73964 6.14994 9.18144 6.00499C9.62325 5.86005 10.0956 5.83502 10.5503 5.93246C11.0049 6.02991 11.4255 6.24634 11.7691 6.55962C12.1127 6.87291 12.3669 7.27181 12.5058 7.71555C12.6447 8.15929 12.6633 8.63196 12.5596 9.08523C12.456 9.53851 12.2338 9.95613 11.9159 10.2954C11.5979 10.6347 11.1956 10.8834 10.75 11.0163V11.0163Z" fill="#525866"/>
</svg>