<svg xmlns="http://www.w3.org/2000/svg" width="24" height="25" viewBox="0 0 24 25" fill="none">
  <path d="M7.0095 18.5211L3 21.6711V5.02109C3 4.7824 3.09482 4.55348 3.2636 4.3847C3.43239 4.21591 3.66131 4.12109 3.9 4.12109H20.1C20.3387 4.12109 20.5676 4.21591 20.7364 4.3847C20.9052 4.55348 21 4.7824 21 5.02109V17.6211C21 17.8598 20.9052 18.0887 20.7364 18.2575C20.5676 18.4263 20.3387 18.5211 20.1 18.5211H7.0095ZM6.3867 16.7211H19.2V5.92109H4.8V17.9676L6.3867 16.7211ZM8.4 10.4211H15.6V12.2211H8.4V10.4211Z" fill="#0A0D14"/>
</svg>