<svg xmlns="http://www.w3.org/2000/svg" width="20" height="20" viewBox="0 0 20 20" fill="none">
  <path d="M10.84 13.7675L7.69078 12.05C7.27963 12.4896 6.74577 12.7953 6.15859 12.9274C5.5714 13.0596 4.95804 13.0121 4.39822 12.7911C3.8384 12.57 3.358 12.1857 3.01946 11.6881C2.68091 11.1905 2.49988 10.6025 2.49988 10.0006C2.49988 9.39878 2.68091 8.81082 3.01946 8.31319C3.358 7.81556 3.8384 7.43126 4.39822 7.21025C4.95804 6.98923 5.5714 6.94171 6.15859 7.07386C6.74577 7.20601 7.27963 7.51173 7.69078 7.95127L10.8408 6.23377C10.6619 5.52583 10.7474 4.77697 11.0813 4.12755C11.4151 3.47814 11.9743 2.97276 12.654 2.70615C13.3338 2.43954 14.0875 2.43 14.7738 2.67933C15.4601 2.92865 16.0319 3.41971 16.382 4.06047C16.7321 4.70123 16.8366 5.44769 16.6757 6.15993C16.5148 6.87218 16.0997 7.5013 15.5082 7.92938C14.9167 8.35746 14.1893 8.55511 13.4625 8.48527C12.7356 8.41543 12.0592 8.08291 11.56 7.55002L8.41003 9.26752C8.53093 9.74854 8.53093 10.252 8.41003 10.733L11.5593 12.4505C12.0585 11.9176 12.7349 11.5851 13.4617 11.5153C14.1886 11.4454 14.9159 11.6431 15.5075 12.0712C16.099 12.4992 16.5141 13.1284 16.675 13.8406C16.8358 14.5529 16.7314 15.2993 16.3813 15.9401C16.0311 16.5808 15.4593 17.0719 14.773 17.3212C14.0867 17.5705 13.3331 17.561 12.6533 17.2944C11.9735 17.0278 11.4143 16.5224 11.0805 15.873C10.7467 15.2236 10.6612 14.4747 10.84 13.7668V13.7675ZM5.50003 11.5003C5.89786 11.5003 6.27939 11.3422 6.56069 11.0609C6.842 10.7796 7.00003 10.3981 7.00003 10.0003C7.00003 9.60245 6.842 9.22092 6.56069 8.93961C6.27939 8.65831 5.89786 8.50027 5.50003 8.50027C5.10221 8.50027 4.72068 8.65831 4.43937 8.93961C4.15807 9.22092 4.00003 9.60245 4.00003 10.0003C4.00003 10.3981 4.15807 10.7796 4.43937 11.0609C4.72068 11.3422 5.10221 11.5003 5.50003 11.5003V11.5003ZM13.75 7.00027C14.1479 7.00027 14.5294 6.84224 14.8107 6.56094C15.092 6.27963 15.25 5.8981 15.25 5.50027C15.25 5.10245 15.092 4.72092 14.8107 4.43961C14.5294 4.15831 14.1479 4.00027 13.75 4.00027C13.3522 4.00027 12.9707 4.15831 12.6894 4.43961C12.4081 4.72092 12.25 5.10245 12.25 5.50027C12.25 5.8981 12.4081 6.27963 12.6894 6.56094C12.9707 6.84224 13.3522 7.00027 13.75 7.00027V7.00027ZM13.75 16.0003C14.1479 16.0003 14.5294 15.8422 14.8107 15.5609C15.092 15.2796 15.25 14.8981 15.25 14.5003C15.25 14.1025 15.092 13.7209 14.8107 13.4396C14.5294 13.1583 14.1479 13.0003 13.75 13.0003C13.3522 13.0003 12.9707 13.1583 12.6894 13.4396C12.4081 13.7209 12.25 14.1025 12.25 14.5003C12.25 14.8981 12.4081 15.2796 12.6894 15.5609C12.9707 15.8422 13.3522 16.0003 13.75 16.0003V16.0003Z" fill="#0A0D14"/>
</svg>