<svg xmlns="http://www.w3.org/2000/svg" width="17" height="16" viewBox="0 0 17 16" fill="none">
  <path d="M12.085 4.38021L12.9568 3.50841L13.8052 4.35681L12.9334 5.22861C13.7949 6.30691 14.2107 7.67414 14.0956 9.04949C13.9805 10.4248 13.3432 11.7039 12.3145 12.624C11.2858 13.5442 9.94381 14.0355 8.56419 13.9971C7.18456 13.9587 5.872 13.3935 4.89608 12.4175C3.92016 11.4416 3.35495 10.1291 3.31655 8.74942C3.27814 7.36979 3.76945 6.02782 4.68956 4.99912C5.60968 3.97042 6.88876 3.33307 8.26412 3.21797C9.63947 3.10287 11.0067 3.51875 12.085 4.38021ZM8.7142 12.7994C9.26575 12.7994 9.8119 12.6908 10.3215 12.4797C10.831 12.2686 11.294 11.9593 11.684 11.5693C12.074 11.1793 12.3834 10.7163 12.5945 10.2067C12.8056 9.69712 12.9142 9.15097 12.9142 8.59941C12.9142 8.04786 12.8056 7.50171 12.5945 6.99214C12.3834 6.48258 12.074 6.01957 11.684 5.62957C11.294 5.23956 10.831 4.93019 10.3215 4.71912C9.8119 4.50805 9.26575 4.39941 8.7142 4.39941C7.60029 4.39941 6.532 4.84191 5.74435 5.62957C4.95669 6.41722 4.5142 7.4855 4.5142 8.59941C4.5142 9.71332 4.95669 10.7816 5.74435 11.5693C6.532 12.3569 7.60029 12.7994 8.7142 12.7994ZM8.1142 5.59941H9.3142V9.19941H8.1142V5.59941ZM6.3142 1.39941H11.1142V2.59941H6.3142V1.39941Z" fill="#525866"/>
</svg>