<svg xmlns="http://www.w3.org/2000/svg" width="24" height="24" viewBox="0 0 24 24" fill="none">
  <path d="M11.1 1.6886C11.397 1.6625 11.6967 1.6499 12 1.6499C17.7159 1.6499 22.35 6.284 22.35 11.9999C22.35 12.3032 22.3374 12.6029 22.3113 12.8999H20.9559C20.5041 17.4476 16.6665 20.9999 12 20.9999C7.0293 20.9999 3 16.9706 3 11.9999C3 7.3334 6.5523 3.4958 11.1 3.0449V1.6877V1.6886ZM11.1 12.8999V4.8557C9.28444 5.08672 7.62497 6.00038 6.45887 7.411C5.29277 8.82161 4.70755 10.6233 4.82216 12.4499C4.93677 14.2765 5.7426 15.991 7.07587 17.2448C8.40914 18.4986 10.1698 19.1976 12 19.1999C13.7537 19.1999 15.4472 18.5598 16.7626 17.3999C18.0779 16.24 18.9248 14.6399 19.1442 12.8999H11.1ZM20.5032 11.0999C20.2969 9.15401 19.4295 7.33772 18.0459 5.95405C16.6622 4.57039 14.8459 3.70303 12.9 3.4967V11.0999H20.5032Z" fill="#525866"/>
</svg>