<svg xmlns="http://www.w3.org/2000/svg" width="16" height="16" viewBox="0 0 16 16" fill="none">
  <g clip-path="url(#clip0_2973_6335)">
    <path d="M15.0822 3.73672C14.5591 3.96849 13.9973 4.12509 13.4066 4.19587C14.016 3.83118 14.472 3.2572 14.6894 2.58104C14.1168 2.92116 13.4901 3.16057 12.8366 3.28886C12.3971 2.81961 11.815 2.50858 11.1806 2.40407C10.5462 2.29955 9.8951 2.4074 9.3283 2.71086C8.76151 3.01432 8.31076 3.49642 8.04603 4.08231C7.78131 4.66819 7.71742 5.32509 7.86428 5.95101C6.70401 5.89275 5.56896 5.59118 4.53279 5.06586C3.49661 4.54054 2.58247 3.80322 1.8497 2.90175C1.59914 3.33396 1.45507 3.83507 1.45507 4.36875C1.45479 4.84919 1.5731 5.32227 1.79951 5.74601C2.02591 6.16976 2.35341 6.53107 2.75295 6.79789C2.28959 6.78314 1.83646 6.65794 1.43127 6.4327V6.47029C1.43122 7.14412 1.66431 7.79721 2.09097 8.31876C2.51764 8.8403 3.1116 9.19817 3.77208 9.33163C3.34225 9.44796 2.89159 9.4651 2.45416 9.38174C2.64051 9.96153 3.0035 10.4685 3.49232 10.8318C3.98113 11.195 4.5713 11.3963 5.18021 11.4075C4.14656 12.2189 2.87001 12.6591 1.55592 12.6571C1.32314 12.6572 1.09056 12.6436 0.859375 12.6164C2.19326 13.474 3.74599 13.9292 5.33179 13.9274C10.6999 13.9274 13.6346 9.48134 13.6346 5.62529C13.6346 5.50001 13.6314 5.37348 13.6258 5.2482C14.1966 4.83539 14.6894 4.32421 15.0809 3.7386L15.0822 3.73672Z" fill="#666D80"/>
  </g>
  <defs>
    <clipPath id="clip0_2973_6335">
      <rect width="15.0333" height="15.0333" fill="white" transform="translate(0.272461 0.644043)"/>
    </clipPath>
  </defs>
</svg>