<svg xmlns="http://www.w3.org/2000/svg" width="24" height="25" viewBox="0 0 24 25" fill="none">
  <path d="M12.0001 13.0274L15.8188 16.8452L14.5452 18.1187L12.9001 16.4735V21.5H11.1V16.4717L9.45485 18.1187L8.18135 16.8452L12.0001 13.0274ZM12.0001 3.5C13.5453 3.50007 15.0367 4.068 16.1906 5.09581C17.3445 6.12361 18.0805 7.53962 18.2587 9.0746C19.3785 9.37998 20.3554 10.0692 21.0186 11.0218C21.6819 11.9744 21.9893 13.1297 21.8871 14.286C21.7849 15.4422 21.2797 16.5257 20.4597 17.3472C19.6396 18.1687 18.557 18.6759 17.401 18.7802V16.9676C17.8151 16.9085 18.2133 16.7674 18.5724 16.5527C18.9314 16.3379 19.2441 16.0539 19.4922 15.717C19.7402 15.3801 19.9187 14.9972 20.0171 14.5906C20.1156 14.1839 20.1321 13.7618 20.0656 13.3488C19.9991 12.9357 19.851 12.5401 19.63 12.1849C19.4089 11.8297 19.1194 11.5221 18.7781 11.28C18.4369 11.038 18.0509 10.8663 17.6426 10.7751C17.2343 10.6838 16.812 10.6748 16.4002 10.7486C16.5411 10.0924 16.5335 9.41297 16.3778 8.7601C16.2222 8.10722 15.9225 7.49743 15.5007 6.97538C15.0789 6.45333 14.5456 6.03225 13.94 5.74298C13.3343 5.4537 12.6717 5.30357 12.0005 5.30357C11.3293 5.30357 10.6667 5.4537 10.061 5.74298C9.45539 6.03225 8.92214 6.45333 8.50031 6.97538C8.07849 7.49743 7.77879 8.10722 7.62315 8.7601C7.46752 9.41297 7.4599 10.0924 7.60085 10.7486C6.77974 10.5944 5.93101 10.7727 5.24136 11.2443C4.55171 11.7159 4.07765 12.4421 3.92345 13.2632C3.76925 14.0843 3.94756 14.933 4.41914 15.6227C4.89072 16.3123 5.61694 16.7864 6.43805 16.9406L6.60005 16.9676V18.7802C5.44396 18.6761 4.36122 18.169 3.54107 17.3476C2.72093 16.5261 2.21555 15.4426 2.11326 14.2863C2.01097 13.1301 2.31828 11.9747 2.98148 11.022C3.64468 10.0693 4.62159 9.38005 5.74145 9.0746C5.91939 7.53954 6.65532 6.12342 7.80927 5.09558C8.96323 4.06774 10.4547 3.49988 12.0001 3.5Z" fill="#525866"/>
</svg>