<svg xmlns="http://www.w3.org/2000/svg" width="16" height="16" viewBox="0 0 16 16" fill="none">
  <path d="M12.8 4.99961V3.79961H3.2V12.1996H12.8V10.9996H8C7.84087 10.9996 7.68826 10.9364 7.57574 10.8239C7.46321 10.7114 7.4 10.5587 7.4 10.3996V5.59961C7.4 5.44048 7.46321 5.28787 7.57574 5.17535C7.68826 5.06282 7.84087 4.99961 8 4.99961H12.8ZM2.6 2.59961H13.4C13.5591 2.59961 13.7117 2.66282 13.8243 2.77535C13.9368 2.88787 14 3.04048 14 3.19961V12.7996C14 12.9587 13.9368 13.1114 13.8243 13.2239C13.7117 13.3364 13.5591 13.3996 13.4 13.3996H2.6C2.44087 13.3996 2.28826 13.3364 2.17574 13.2239C2.06321 13.1114 2 12.9587 2 12.7996V3.19961C2 3.04048 2.06321 2.88787 2.17574 2.77535C2.28826 2.66282 2.44087 2.59961 2.6 2.59961V2.59961ZM8.6 6.19961V9.79961H12.8V6.19961H8.6ZM9.8 7.39961H11.6V8.59961H9.8V7.39961Z" fill="#0A0D14"/>
</svg>